<svg xmlns="http://www.w3.org/2000/svg" width="24" height="24" viewBox="0 0 24 24" fill="currentColor"><path d="M20.317 4.3698a19.7913 19.7913 0 0 0-4.8851-1.5152.0741.0741 0 0 0-.0785.0371c-.211.3753-.4464.8257-.618 1.2525a17.7222 17.7222 0 0 0-5.485 0c-.1716-.4268-.407-.8772-.618-1.2525a.0741.0741 0 0 0-.0785-.0371 19.7913 19.7913 0 0 0-4.8851 1.5152.069.069 0 0 0-.0321.0277C.5334 9.0458-.319 13.5799.0992 18.0578a.0824.0824 0 0 0 .0321.0561c2.0527 1.2226 4.2222 1.958 6.5061 2.2425a.0741.0741 0 0 0 .087-.0652c.2236-.6882.434-1.3923.6296-2.1053a.0741.0741 0 0 0-.0416-.0876 13.013 13.013 0 0 1-1.8974-.8345.0741.0741 0 0 1 .0042-.1352c.45-.319.8602-.6431 1.229-1.0021a.0741.0741 0 0 1 .087-.0084c3.9995 1.958 8.1387 1.958 12.0457 0a.0741.0741 0 0 1 .087.0084c.3688.359.779.6831 1.229 1.0021a.0741.0741 0 0 1 .0042.1352 13.013 13.013 0 0 1-1.8974.8345.0741.0741 0 0 0-.0416.0876c.1956.713.406 1.4171.6296 2.1053a.0741.0741 0 0 0 .087.0652c2.2839-.2845 4.4534-1.02 6.5061-2.2425a.0824.0824 0 0 0 .0321-.0561c.5004-5.177-.8382-9.6738-3.5485-13.6603a.069.069 0 0 0-.0321-.0277zM8.02 15.3312c-.9416 0-1.7042-1.0125-1.7042-2.2625s.7626-2.2625 1.7042-2.2625c.9416 0 1.7042.9875 1.7042 2.2625s-.7626 2.2625-1.7042 2.2625zm7.96 0c-.9416 0-1.7042-1.0125-1.7042-2.2625s.7626-2.2625 1.7042-2.2625c.9416 0 1.7042.9875 1.7042 2.2625s-.7626 2.2625-1.7042 2.2625z"/></svg>